<svg width="22" height="23" viewBox="0 0 22 23" fill="none" xmlns="http://www.w3.org/2000/svg">
<g clip-path="url(#clip0_58_4150)">
<path d="M14.667 4.62695H16.5003C16.9866 4.62695 17.4529 4.82011 17.7967 5.16392C18.1405 5.50774 18.3337 5.97406 18.3337 6.46029V19.2936C18.3337 19.7799 18.1405 20.2462 17.7967 20.59C17.4529 20.9338 16.9866 21.127 16.5003 21.127H5.50033C5.0141 21.127 4.54778 20.9338 4.20396 20.59C3.86015 20.2462 3.66699 19.7799 3.66699 19.2936V6.46029C3.66699 5.97406 3.86015 5.50774 4.20396 5.16392C4.54778 4.82011 5.0141 4.62695 5.50033 4.62695H7.33366" stroke="white" stroke-width="2" stroke-linecap="round" stroke-linejoin="round"/>
<path d="M13.7497 2.79102H8.24967C7.74341 2.79102 7.33301 3.20142 7.33301 3.70768V5.54102C7.33301 6.04728 7.74341 6.45768 8.24967 6.45768H13.7497C14.2559 6.45768 14.6663 6.04728 14.6663 5.54102V3.70768C14.6663 3.20142 14.2559 2.79102 13.7497 2.79102Z" stroke="white" stroke-width="2" stroke-linecap="round" stroke-linejoin="round"/>
</g>
<defs>
<clipPath id="clip0_58_4150">
<rect width="22" height="22" fill="white" transform="translate(0 0.958984)"/>
</clipPath>
</defs>
</svg>
