<svg width="139" height="132" viewBox="0 0 139 132" fill="none" xmlns="http://www.w3.org/2000/svg">
<path d="M51.2516 52.1829L54.5785 55.5366L51.2516 58.8902H13.458L10.1311 55.5366L13.458 52.1829H51.2516ZM71.3461 102.085L70.9469 97.3903L75.6046 96.9878L104.349 121.805L104.748 126.5L100.091 126.902L71.3461 102.085ZM13.8572 60.7683L9.46572 62.5122L11.1957 66.939L45.7955 82.0976L50.187 80.3536L48.457 75.9268L13.8572 60.7683ZM114.33 127.305L113.664 132L109.007 131.329L106.877 128.512L107.543 123.817L112.201 124.488L114.33 127.305ZM67.7531 102.085L68.1523 97.3903L63.3616 96.9878L34.7502 121.805L34.351 126.5L39.0086 126.902L67.7531 102.085ZM27.2979 117.244L28.4956 121.805L33.0202 120.598L51.7839 87.5976L50.5863 83.0366L46.0617 84.2439L27.2979 117.244ZM24.9026 127.305L25.5679 132L30.2256 131.329L32.3548 128.512L31.6895 123.817L27.0318 124.488L24.9026 127.305ZM72.5438 3.21946L69.2169 0L66.0231 3.48777L66.1562 6.97563L69.6162 10.1951L72.6769 6.70732L72.5438 3.21946ZM3.47729 55.5366L0.150391 58.8902L3.47729 62.2439H6.93728L10.2642 58.8902L6.93728 55.5366H3.47729ZM131.363 55.5366L128.037 58.8902L131.363 62.2439H134.823L138.15 58.8902L134.823 55.5366H131.363ZM124.843 52.1829L128.17 55.5366L124.843 58.8902H87.0491L83.7222 55.5366L87.0491 52.1829H124.843ZM90.6422 75.9268L88.9122 80.3536L93.3037 82.0976L127.904 66.939L129.633 62.5122L125.242 60.7683L90.6422 75.9268ZM93.0375 84.2439L88.513 83.0366L87.3153 87.4635L106.079 120.463L110.604 121.671L111.801 117.11L93.0375 84.2439ZM54.0462 49.0975L56.5747 53.1219L60.567 50.5732L68.5515 13.4146L66.0231 9.39025L62.0308 11.939L54.0462 49.0975ZM76.5361 11.939L72.5438 9.39025L70.0154 13.4146L78.133 50.5732L82.1253 53.1219L84.6538 49.0975L76.5361 11.939Z" fill="white"/>
</svg>
