<svg width="170" height="90" viewBox="0 0 170 90" fill="none" xmlns="http://www.w3.org/2000/svg">
<g clip-path="url(#clip0_58_3952)">
<path d="M152.243 16.8371L149.842 19.2442H147.44V5.66288L149.842 3.25586L152.243 5.66288V16.8371Z" fill="white"/>
<path d="M153.092 4.81405L150.69 2.40702L153.092 0H164.255L166.656 2.40702L164.255 4.81405H153.092Z" fill="white"/>
<path d="M153.092 22.5015L150.69 20.0945L153.092 17.6875H164.255L166.656 20.0945L164.255 22.5015H153.092Z" fill="white"/>
<path d="M169.907 19.2442H167.506L165.104 16.8371V5.66288L167.506 3.25586L169.907 5.66288V19.2442Z" fill="white"/>
<path d="M152.243 37.7755L149.842 40.1826L147.44 37.7755V20.9434H149.842L152.243 23.3504V37.7812V37.7755Z" fill="white"/>
<path d="M169.907 37.7753L167.506 40.1824L165.104 37.7753V23.3445L167.506 20.9375H169.907V37.7697V37.7753Z" fill="white"/>
<path d="M125.822 22.5015L123.421 20.0945L125.822 17.6875H136.985L139.387 20.0945L136.985 22.5015H125.822Z" fill="white"/>
<path d="M124.973 16.8381L122.571 19.2451H120.17V0.855469L124.973 5.66385V16.8381Z" fill="white"/>
<path d="M142.637 16.8371L140.235 19.2442L137.834 16.8371V5.66288L140.235 3.25586L142.637 5.66288V16.8371Z" fill="white"/>
<path d="M136.985 0.00566358H121.02L125.822 4.81405H136.985L139.387 2.40702L136.985 0V0.00566358Z" fill="white"/>
<path d="M124.973 23.3504L122.571 20.9434H120.17V39.333L124.973 34.5246V23.3504Z" fill="white"/>
<path d="M142.637 23.3504L140.235 20.9434L137.834 23.3504V34.5246L140.235 36.9317L142.637 34.5246V23.3504Z" fill="white"/>
<path d="M136.985 40.1834H121.02L125.822 35.375H136.985L139.387 37.782L136.985 40.189V40.1834Z" fill="white"/>
<path d="M4.80272 16.838L2.40136 19.2451H0V2.41288L2.40136 0.00585938L4.80272 2.41288V16.8437V16.838Z" fill="white"/>
<path d="M28.749 16.838L31.1504 19.2451H33.5517V2.41288L31.1504 0.00585938L28.749 2.41288V16.8437V16.838Z" fill="white"/>
<path d="M4.80272 37.7755L2.40136 40.1826L0 37.7755V20.9434H2.40136L4.80272 23.3504V37.7812V37.7755Z" fill="white"/>
<path d="M28.749 37.7755L31.1504 40.1826L33.5517 37.7755V20.9434H31.1504L28.749 23.3504V37.7812V37.7755Z" fill="white"/>
<path d="M16.187 15.8511V12.4586L9.40206 5.66797H6.00391V9.07178L12.7776 15.8568H16.1814L16.187 15.8511Z" fill="white"/>
<path d="M27.5591 5.66973V9.06221L20.7741 15.8528H17.376V12.449L24.1496 5.66406H27.5534L27.5591 5.66973Z" fill="white"/>
<path d="M98.5517 22.5015L96.1504 20.0945L98.5517 17.6875H109.715L112.116 20.0945L109.715 22.5015H98.5517Z" fill="white"/>
<path d="M97.7021 16.838L95.3008 19.2451H92.8994V2.41288L95.3008 0.00585938L97.7021 2.41288V16.8437V16.838Z" fill="white"/>
<path d="M97.7021 37.7755L95.3008 40.1826L92.8994 37.7755V20.9434H95.3008L97.7021 23.3504V37.7812V37.7755Z" fill="white"/>
<path d="M110.559 37.7753L112.96 40.1824L115.361 37.7753V23.3445L112.96 20.9375L110.559 23.3445V37.7753Z" fill="white"/>
<path d="M115.367 0.00585938H111.969L98.9033 13.0887V16.4926H102.301L115.367 3.40967V0.00585938Z" fill="white"/>
<path d="M44.0117 4.81424L41.6104 2.40722L44.0117 0.00585938H55.1746L57.576 2.41288L55.1746 4.81991H44.0117V4.81424Z" fill="white"/>
<path d="M43.1621 16.8371L40.7607 19.2442H38.3594V5.66288L40.7607 3.25586L43.1621 5.66288V16.8371Z" fill="white"/>
<path d="M56.0244 16.8371L58.4258 19.2442H60.8271V5.66288L58.4258 3.25586L56.0244 5.66288V16.8371Z" fill="white"/>
<path d="M55.169 35.375L57.5703 37.782L55.169 40.189H44.0117L41.6104 37.782L44.0117 35.375H55.169Z" fill="white"/>
<path d="M56.0244 23.3504L58.4258 20.9434H60.8271V34.5246L58.4258 36.9317L56.0244 34.5246V23.3504Z" fill="white"/>
<path d="M43.1621 23.3504L40.7607 20.9434H38.3594V34.5246L40.7607 36.9317L43.1621 34.5246V23.3504Z" fill="white"/>
<path d="M71.2812 4.81405L68.8799 2.40702L71.2812 0H82.4442L84.8455 2.40702L82.4442 4.81405H71.2812Z" fill="white"/>
<path d="M70.4316 16.8371L68.0303 19.2442H65.6289V5.66288L68.0303 3.25586L70.4316 5.66288V16.8371Z" fill="white"/>
<path d="M83.2881 8.84582L85.6894 11.2528L88.0908 8.84582V5.66288L85.6894 3.25586L83.2881 5.66288V8.84582Z" fill="white"/>
<path d="M71.2812 35.375L68.8799 37.782L71.2812 40.189H82.4442L84.8455 37.782L82.4442 35.375H71.2812Z" fill="white"/>
<path d="M70.4316 23.3504L68.0303 20.9434H65.6289V34.5246L68.0303 36.9317L70.4316 34.5246V23.3504Z" fill="white"/>
<path d="M83.2881 31.3426L85.6894 28.9355L88.0908 31.3426V34.5255L85.6894 36.9325L83.2881 34.5255V31.3426Z" fill="white"/>
<path d="M2.40136 54.6305L0 52.2234L2.40136 49.8164H16.8152L19.2165 52.2234L16.8152 54.6305H2.40136Z" fill="#00CAF1"/>
<path d="M5.65234 72.3121L3.25098 69.9051L5.65234 67.498H16.8153L19.2166 69.9051L16.8153 72.3121H5.65234Z" fill="#00CAF1"/>
<path d="M22.4668 66.6535L20.0654 69.0606L17.6641 66.6535V55.4793L20.0654 53.0723L22.4668 55.4793V66.6535Z" fill="#00CAF1"/>
<path d="M56.7939 54.6305L54.3926 52.2234L56.7939 49.8164H71.2078L73.6091 52.2234L71.2078 54.6305H56.7939Z" fill="#00CAF1"/>
<path d="M60.0449 72.3121L57.6436 69.9051L60.0449 67.498H71.2078L73.6092 69.9051L71.2078 72.3121H60.0449Z" fill="#00CAF1"/>
<path d="M76.8603 66.6535L74.459 69.0606L72.0576 66.6535V55.4793L74.459 53.0723L76.8603 55.4793V66.6535Z" fill="#00CAF1"/>
<path d="M20.0662 85.1855L22.4675 87.5926L20.0662 89.9996H5.65234L3.25098 87.5926L5.65234 85.1855H20.0662Z" fill="#00CAF1"/>
<path d="M0 73.1609L2.40136 70.7539L4.80272 73.1609V84.3352L2.40136 86.7422L0 84.3352V73.1609Z" fill="#00CAF1"/>
<path d="M56.7939 85.1855L54.3926 87.5926L56.7939 89.9996H71.2078L73.6091 87.5926L71.2078 85.1855H56.7939Z" fill="#00CAF1"/>
<path d="M76.8603 73.1609L74.459 70.7539L72.0576 73.1609V84.3352L74.459 86.7422L76.8603 84.3352V73.1609Z" fill="#00CAF1"/>
<path d="M32.9228 54.6305L30.5215 52.2234L32.9228 49.8164H44.0858L46.4871 52.2234L44.0858 54.6305H32.9228Z" fill="#00CAF1"/>
<path d="M32.0722 66.6535L29.6709 69.0606H27.2695V55.4793L29.6709 53.0723L32.0722 55.4793V66.6535Z" fill="#00CAF1"/>
<path d="M44.9346 66.6535L47.3359 69.0606H49.7373V55.4793L47.3359 53.0723L44.9346 55.4793V66.6535Z" fill="#00CAF1"/>
<path d="M44.085 85.1855L46.4863 87.5926L44.085 89.9996H32.9277L30.5264 87.5926L32.9277 85.1855H44.085Z" fill="#00CAF1"/>
<path d="M44.9346 73.1609L47.3359 70.7539H49.7373V84.3295L47.3359 86.7365L44.9346 84.3295V73.1553V73.1609Z" fill="#00CAF1"/>
<path d="M32.0722 73.1609L29.6709 70.7539H27.2695V84.3295L29.6709 86.7365L32.0722 84.3295V73.1553V73.1609Z" fill="#00CAF1"/>
<path d="M87.3154 54.6305L84.9141 52.2234L87.3154 49.8164H98.4784L100.88 52.2234L98.4784 54.6305H87.3154Z" fill="#00CAF1"/>
<path d="M86.4707 66.6535L84.0693 69.0606H81.668V55.4793L84.0693 53.0723L86.4707 55.4793V66.6535Z" fill="#00CAF1"/>
<path d="M99.3271 66.6535L101.729 69.0606H104.13V55.4793L101.729 53.0723L99.3271 55.4793V66.6535Z" fill="#00CAF1"/>
<path d="M98.4784 85.1855L100.88 87.5926L98.4784 89.9996H87.3154L84.9141 87.5926L87.3154 85.1855H98.4784Z" fill="#00CAF1"/>
<path d="M99.3271 73.1609L101.729 70.7539H104.13V84.3295L101.729 86.7365L99.3271 84.3295V73.1553V73.1609Z" fill="#00CAF1"/>
<path d="M86.4707 73.1609L84.0693 70.7539H81.668V84.3295L84.0693 86.7365L86.4707 84.3295V73.1553V73.1609Z" fill="#00CAF1"/>
</g>
<defs>
<clipPath id="clip0_58_3952">
<rect width="169.907" height="90.0003" fill="white"/>
</clipPath>
</defs>
</svg>
